<svg width="24" height="24" viewBox="0 0 24 24" fill="none" xmlns="http://www.w3.org/2000/svg">
<rect width="24" height="24" fill="white"/>
<path fill-rule="evenodd" clip-rule="evenodd" d="M23.04 12.2624C23.04 11.447 22.9668 10.6629 22.8309 9.91016H12V14.3586H18.1891C17.9225 15.7961 17.1123 17.014 15.8943 17.8295V20.7149H19.6109C21.7855 18.7129 23.04 15.7647 23.04 12.2624Z" fill="#4285F4"/>
<path fill-rule="evenodd" clip-rule="evenodd" d="M11.9999 23.4986C15.1049 23.4986 17.7081 22.4688 19.6108 20.7125L15.8942 17.827C14.8645 18.517 13.5472 18.9247 11.9999 18.9247C9.00469 18.9247 6.46946 16.9018 5.56514 14.1836H1.7231V17.1631C3.61537 20.9215 7.50446 23.4986 11.9999 23.4986Z" fill="#34A853"/>
<path fill-rule="evenodd" clip-rule="evenodd" d="M5.56523 14.1855C5.33523 13.4955 5.20455 12.7584 5.20455 12.0005C5.20455 11.2425 5.33523 10.5055 5.56523 9.81548V6.83594H1.72318C0.944318 8.38844 0.5 10.1448 0.5 12.0005C0.5 13.8562 0.944318 15.6125 1.72318 17.165L5.56523 14.1855Z" fill="#FBBC05"/>
<path fill-rule="evenodd" clip-rule="evenodd" d="M11.9999 5.07386C13.6883 5.07386 15.2042 5.65409 16.3961 6.79364L19.6945 3.49523C17.7029 1.63955 15.0997 0.5 11.9999 0.5C7.50446 0.5 3.61537 3.07705 1.7231 6.83545L5.56514 9.815C6.46946 7.09682 9.00469 5.07386 11.9999 5.07386Z" fill="#EA4335"/>
</svg>
